<svg width="48" height="65" viewBox="0 0 48 65" fill="none" xmlns="http://www.w3.org/2000/svg">
<path d="M25.6915 13.3045C17.3096 25.5447 23.6293 38.8492 23.6293 38.8492C23.6293 38.8492 25.492 33.727 28.6851 29.1369C31.8781 24.5468 36.3351 19.6907 36.3351 19.6907C36.3351 19.6907 30.1416 29.0704 27.155 37.7848C24.1684 46.4993 26.0906 52.1537 26.0906 52.1537C25.3588 51.555 23.8657 47.5273 22.3699 44.0825C20.874 40.6376 18.874 37.6192 13.9591 33.1997C9.04411 28.7802 0.279771 28.8043 0.279771 28.8043C0.279771 28.8043 -1.53331 37.7848 4.07165 45.4349C9.67661 53.085 15.8619 54.8913 19.904 56.012C23.946 57.1327 24.9984 57.2551 26.5756 57.8642C28.1528 58.4734 31.3178 60.3097 32.5469 61.1295C33.776 61.9493 35.6033 63.1299 39.6612 64.3939C39.6612 64.3939 40.3264 63.5956 40.8586 63.0634C41.3908 62.5312 42.7878 61.7995 42.7878 61.7995C39.6612 61.9325 31.479 58.2738 29.7494 52.4198C28.0198 46.5658 28.1528 42.3084 32.3213 38.1713C36.4898 34.0341 42.7213 31.9974 46.513 21.0211C50.3048 10.0449 45.6483 0 45.6483 0C45.6483 0 34.0733 1.06436 25.6915 13.3045Z" fill="#294A2D"/>
</svg>
