<svg width="44" height="58" viewBox="0 0 44 58" fill="none" xmlns="http://www.w3.org/2000/svg">
<path d="M18.7011 13.8052C6.46519 21.8183 7.19422 36.3704 7.19422 36.3704C7.19422 36.3704 10.8191 32.3943 15.4529 29.4082C20.0868 26.4222 25.97 23.6715 25.97 23.6715C25.97 23.6715 16.8023 29.8989 10.8011 36.7325C4.79983 43.5661 4.39094 49.2869 4.39094 49.2869L7.64148 51.0901C8.2763 45.0851 10.0026 41.2445 15.3524 39.0417C20.7023 36.8389 27.1358 37.3368 34.7219 28.7409C42.308 20.145 41.8619 9.20167 41.8619 9.20167C41.8619 9.20167 30.937 5.79201 18.7011 13.8052Z" fill="#294A2D"/>
</svg>
